<svg xmlns="http://www.w3.org/2000/svg" viewBox="0 0 309.78 366.7"><defs><style>.cls-1{fill:none;}.cls-1,.cls-2{stroke:#fff;stroke-miterlimit:10;}.cls-2{fill:#fff;}</style></defs><title>Ativo 7</title><g id="Camada_2" data-name="Camada 2"><g id="Camada_1-2" data-name="Camada 1"><path class="cls-1" d="M110.28,12.07a4.85,4.85,0,0,1,1.62-4.49c1.1-.91,1.83-2.89,3.47-2.37s2,2.54,2.53,4.05-4.45,7.28-5.82,6.91C109.87,15.59,110.47,13.61,110.28,12.07Z"/><path class="cls-1" d="M104,26.15c-1.1.07-1.75-.28-1.55-1,.67-2.47.81-5.36,3.22-6.82,1.37-.83,2,1,2.14,1.92C108.23,23.31,104.75,23.93,104,26.15Z"/><path class="cls-2" d="M309.06,87.64c.09,10.06-2.65,19.73-4.18,29.55-4.06,25.92-8.39,51.81-12.68,77.7-5.84,35.22-11.78,70.43-17.61,105.66-3.22,19.5-6.43,39-9.36,58.55-.72,4.78-2.83,6.45-7.54,6.37-12.31-.19-24.62,0-36.93,0a7.68,7.68,0,0,1-4.33-.92c11.49-7.94,13.76-14.72,9.37-28.12a65.88,65.88,0,0,0-2.53-6.51c-9.15-20.51-18.43-41-27.44-61.54-2.32-5.31-5.61-10.27-6.61-16.11-6.9-40.53-14-81-20.54-121.6-2.07-12.81-6.64-25.31-4.22-38.86.84-4.7,1.95-5.48,6.11-5.51,10.79-.09,21.6.77,32.37-.45,3.41.3,4,2.56,4.34,5.49,1.86,14.57,3.93,29.11,6,43.65a15.4,15.4,0,0,0,1,2.79c-1.27,7.79.39,9.66,8.08,9.57,9.49-.11,19-.16,28.46,0,8.87.11,9.08,0,10.43-8.72q3.56-22.93,7.13-45.87c.46-2.91,1-5.82,4.88-5.68C285.15,87.45,297.12,86.44,309.06,87.64Zm-64.63,98.05c-7-2.07-14.15-.94-21.23-.79-2.6.06-3.18,2.5-2.88,4.92,2.73,21.71,5.33,43.43,8.25,65.11.48,3.5.13,7.4,2.7,10.44.16,10.83,2.62,21.42,3.32,32.2.09,1.45-.15,3.4,1.84,3.55,2.41.18,2.2-2,2.42-3.57,4.67-34.09,9.52-68.15,13.91-102.28C254.21,184,255.36,185.73,244.43,185.69Z"/><path class="cls-1" d="M202.94,85.82c-10.77,1.22-21.58.36-32.37.45-4.16,0-5.27.81-6.11,5.51-2.42,13.55,2.15,26.05,4.22,38.86,6.56,40.58,13.64,81.07,20.54,121.6,1,5.84,4.29,10.8,6.61,16.11,9,20.57,18.29,41,27.44,61.54a65.88,65.88,0,0,1,2.53,6.51c4.39,13.4,2.12,20.18-9.37,28.12a134.19,134.19,0,0,1-18.88,1.68l-170.36-.35a44.87,44.87,0,0,1-10.9-1.08c-12.72-3.18-18.95-14.16-14.2-26.39,4.15-10.68,9.15-21,13.91-31.46,13-28.43,26.13-56.79,39.05-85.25,7.48-16.5,15.89-32.59,22-49.69a49.73,49.73,0,0,0,2.74-16.67c0-13.81-.19-27.63-.18-41.45,0-6.29-2.82-10.34-8.63-12.58-6.61-2.54-7.83-4.85-6.83-12.23.84-6.24,4.66-10.34,10.52-10.89,3.31-.32,6.66-.22,10-.23,21,0,42-1,62.93.35,15.09,1,30.13,1.2,45.21,1.46,2.74.05,5.25.66,6.68,3.48A4.81,4.81,0,0,0,202.94,85.82Zm-.6,224.57c0-.3,0-.6-.05-.9,1.3-2.7-1-4.11-2.1-6a4.46,4.46,0,0,0-.82,0c0-.63-.09-1.26-.13-1.9-.06-.41-.13-.83-.19-1.25a173.76,173.76,0,0,0-8.81-19.89c-1.1-2.46-1.05-5.56-4-7-.36-.61-.71-1.23-1.06-1.84-.09-2.22.74-4.74-2-6.09a2.16,2.16,0,0,0-.88-2.15c0-1.63-.35-3.08-2-3.85.21-2.91-2.16-5-2.33-7.84-.19-1.44-1.22-2-2.46-2.26l-.23-1-.18-1.95-.85-.95,0-.05c.35-1.57-.71-2.75-1.14-4.11.45-5.79-3.39-9.93-5.78-14.56-10.27-19.88-19-40.31-23.43-62.39-3.54-17.49-3.75-35-2-52.7.58-5.81-.85-7.34-6.48-7.36q-21-.1-42,0c-5.8,0-7.41,1.53-7.44,7.46q-.11,20.74.1,41.47a67.05,67.05,0,0,1-6.22,30c-9,18.85-17.63,37.86-25.52,57.2a29.31,29.31,0,0,0-3.12,8.05l-2.82,6.9c-1.24.67-1.18,1.86-1.2,3l-1,1.7c-2.06,1.66-2.27,4.23-3.19,6.46-.91.81-.71,1.91-.76,2.94-.48.44-1.16.79-1.41,1.34-3.5,7.6-7,15.21-10.37,22.86-2.42,5.5-4.68,11.07-7,16.61l-1.2,3.4c-.93,1.86-2.61,3.38-2.64,5.66-2,2.08-2.63,4.77-3.44,7.4C12.61,332.3,9.42,338,8.62,344.62c-.11,1.81-.71,3.68.63,5.31.06,3.35,3.57,3.58,5.08,5.62,2.77,3.23,6.41,3.14,10.16,2.66H45.15a33.73,33.73,0,0,0,9.36,0l1.7.08c8,0,16,1.14,23.9-.68H81.3c.81,1.08,1.91.9,3,.7l6.75-.11a192.21,192.21,0,0,0,21.2.15,249.18,249.18,0,0,1,36.86,0c1.76,0,3.64.83,5.13-.82l6.19.11c3.27.62,6.54,2,9.79-.06l4.89.73,18.41-.05H198c3.3.17,6.42-1.05,9.79-1.09,2.63,0,7.06-.52,7.64-5.1,4-2.5,4.51-5.74,2-9.6-1.54-7.14-5-13.5-8.23-19.94l-1-1.88a17,17,0,0,0-4-8.12A1.69,1.69,0,0,0,202.34,310.39Zm-24.57-79.46c1.93-3.75,0-6.5-.43-9.29Q168,164.82,158.41,108c-.32-1.91-.14-4.57-2.34-5.08-2.52-.58-4.75,1.07-6.49,3a8.43,8.43,0,0,0-1.9,5.57c-.25,5.65-.39,11.31-.62,17-1.29,31.59,8.63,60.3,22.77,87.88C172.24,221,174.05,226,177.77,230.93ZM113.8,97v0c12,0,23.94.07,35.9-.06,2.62,0,6,.52,6-3.93-.09-6.77-1.23-8.61-6-8.62q-35.65-.06-71.31.08c-5.4,0-7.62,2.09-7.67,6.4s2,6.05,7.71,6.08C90.2,97,102,97,113.8,97Z"/><path class="cls-1" d="M113.43,61.06c-3.64-.17-7.21-.5-10.62-2.06-7-3.21-10-8-9.67-15.83.4-8.55,4.21-16,7.76-23.52,2.48-5.25,5.37-10.32,8.29-15.35C112-.58,115.92-.84,118.72,4,125.3,15.34,131.63,26.88,135,39.7c2.17,8.17-.95,14.83-8.56,18.56A28.23,28.23,0,0,1,113.43,61.06ZM98.24,47c.41,2.93,3.86,6.18,6.21,10a2.75,2.75,0,0,0,3.69.39c2.36-2.25,5-4.39,5.67-7.92a2.22,2.22,0,0,0-1.1-2.51c-2.75-1.83-5.42-3.82-8.29-5.45C100.72,39.35,98.35,40.85,98.24,47ZM131,45.78c1.12-5.41-1.8-9.8-3.12-14.52-.28-1-1.36-1.83-2.34-1a10.92,10.92,0,0,0-4.21,9.14c.1,3.46,2.12,4.66,5.31,4.22C128.55,43.31,129.58,44.76,131,45.78ZM110.28,12.07c.19,1.54-.41,3.52,1.8,4.1,1.37.37,6.33-5.45,5.82-6.91s-.9-3.53-2.53-4S113,6.67,111.9,7.58A4.85,4.85,0,0,0,110.28,12.07ZM104,26.15c.71-2.22,4.19-2.84,3.81-5.94-.12-.95-.77-2.75-2.14-1.92-2.41,1.46-2.55,4.35-3.22,6.82C102.29,25.87,102.94,26.22,104,26.15Z"/><path class="cls-1" d="M309.06,87.64c-11.94-1.2-23.91-.19-35.86-.62-3.9-.14-4.42,2.77-4.88,5.68q-3.56,22.93-7.13,45.87c-1.35,8.75-1.56,8.83-10.43,8.72-9.48-.13-19-.08-28.46,0-7.69.09-9.35-1.78-8.08-9.57a8.26,8.26,0,0,0,5.95,2.15c7.82-.06,15.64-.05,23.46-.21,6.75-.14,9.55-2.61,10.62-9.4,2.1-13.29,4.17-26.6,6.07-39.92,1.27-8.88,2.88-10.54,11.76-10.59s17.64,0,26.47,0C306,79.85,306.56,80.26,309.06,87.64Z"/><path class="cls-1" d="M231.27,265.37c-2.57-3-2.22-6.94-2.7-10.44-2.92-21.68-5.52-43.4-8.25-65.11-.3-2.42.28-4.86,2.88-4.92,7.08-.15,14.23-1.28,21.23.79a7.51,7.51,0,0,1,.82,4.81q-4.2,31-8.39,62.07c-.51,3.77-1,7.55-1.75,11.28C234.69,266,233.78,268,231.27,265.37Z"/><path class="cls-1" d="M231.27,265.37c2.51,2.63,3.42.58,3.84-1.52.75-3.73,1.24-7.51,1.75-11.28q4.21-31,8.39-62.07a7.51,7.51,0,0,0-.82-4.81c10.93,0,9.78-1.69,8.33,9.58-4.39,34.13-9.24,68.19-13.91,102.28-.22,1.6,0,3.75-2.42,3.57-2-.15-1.75-2.1-1.84-3.55C233.89,286.79,231.43,276.2,231.27,265.37Z"/><path class="cls-1" d="M54.39,240.48c7.89-19.34,16.53-38.35,25.52-57.2a67.05,67.05,0,0,0,6.22-30q-.19-20.73-.1-41.47c0-5.93,1.64-7.44,7.44-7.46q21-.06,42,0c5.63,0,7.06,1.55,6.48,7.36-1.77,17.67-1.56,35.21,2,52.7,4.47,22.08,13.16,42.51,23.43,62.39,2.39,4.63,6.23,8.77,5.78,14.56a82.59,82.59,0,0,0-21.82.12c-1.89-2.25-4.49-2.18-6.92-1.69a53.1,53.1,0,0,1-18.35,0c-5.48-.8-7.58-2.91-8-8.42a123.75,123.75,0,0,1-.35-12.48c.22-8.38,1.75-9.66,10.3-9.28,2.33.1,5.16.61,5.15-2.89,0-3.29-2.75-3.15-5.13-3.18-9.19-.11-10.55-1.55-10.44-10.88.17-16,.29-32,.5-47.93,0-3.23-.44-5.75-4.53-5.39-3.74.33-3.93,2.9-3.69,5.77,1.39,16.95.57,33.92.57,50.88,0,5-3,7.52-8,7.68-2.32.08-4.65-.16-7-.15-2,0-3.67.95-3.88,3.1-.25,2.56,1.76,2.94,3.67,3,3,.05,6,0,9-.16,3.14-.15,4.83.9,5.4,4.33a88.53,88.53,0,0,1,.65,19.91c-.37,6.21-1.59,7-7.74,6.84-6.63-.21-13.27-.63-19.88-.45-2.11.05-5.45.2-5.45,3.75,0,4,3.12,3.48,5.75,3.68,6.06.46,12.26-1.2,18.2,1.13-.23,1.27-.45,2.54-.68,3.81-.33,1-.67,2.05-1,3.08l-1.32,2.82c-1.07.9-.69,2.08-.63,3.2-2.24,2.93-3.64,6.14-3.28,9.93-.3,1-.61,1.92-.92,2.88-.75,1-1.49,2-2.23,3.07-1.42,0-2.47.54-2.68,2.12l-1,1.18c-.62,0-.9.21-.57.84a27.35,27.35,0,0,0-5.6,14.89,2.13,2.13,0,0,0-.88,2l-.45,1.91c-3.63,3.31-.11,7.06-.65,10.56-1.37,2.05-5.33,1-5.47,4.51-.8,1.24-1.6,2.48-1.44,4.06L70,325.48a5.18,5.18,0,0,0-1.67,3l-.53,1.69-.08-.06c-2.6,1.13-4.42,4.32-7.95,2.94-1.15-1-2.39-.4-3.61-.2l-2.79-5.43c-.88-1.55.83-3.66-1.06-5-3.38-2.76-3.63-6.19-.48-6.41,3.68-.26,3.36-2.76,4.32-4.74l.35-1.23c1.58-4,3.23-8,3-12.47,1-.07,1.27-.79,1.61-1.59,1.88-4.38,2.85-9.14,4.62-13.44,3.41-8.26,6.07-16.75,9.22-25.09,1.58-2.81,3.75-5.56,1.11-8.9l-3.71-3.3c.16-3.58-.53-5.71-5-4.09-2.2.79-4.84.36-7.27.48a1.18,1.18,0,0,0-.92,0C57.6,241.39,55.76,241.87,54.39,240.48Z"/><path class="cls-1" d="M151.29,241.51a82.59,82.59,0,0,1,21.82-.12c.43,1.36,1.49,2.54,1.14,4.11-1.39.3-3.49.19-2.76,2.42s2.57-.1,3.81.53c.08.32.15.65.23,1-.1.7-.19,1.41-.29,2.12-1.23.36-2.45-1.48-3.61-.1a1.11,1.11,0,0,0,.42,1.69c1.62.7,2.92.52,3.19-1.6l2.75.15c.17,2.79,2.54,4.93,2.33,7.84-3.06,3.25-6.84,3-10.9,2.75-3.16-.17-4.26-.5-2-3.52-2-.17-3.94-.75-5.4.67a6.71,6.71,0,0,1-5.77,2.14l-.06-.05c-.09-1.41.49-2.92-.82-4.64-2.22,2.6-4.37,5.06-6.45,7.58-.82,1-1.09,2.38,0,3.11,1.87,1.21,2.51,3,3.1,4.91.79,2.49,1.81,1.93,3,.36,2.73-3.64,6.27-6.66,8.15-11.47,2,3.16-1.14,4.62-1.15,7.2,6.12-.31,12.21.9,18.19-1-1.43,5.09,3.55,2.42,4.95,4.09.35.61.7,1.23,1.06,1.84-7.34-1.88-14.81-.66-22.21-.87-1.36,0-2.87.6-2.35,2.38,1.56,5.32-.13,10.71.52,16a12.91,12.91,0,0,1-1.83,8.39l-.2.2a16.57,16.57,0,0,0-8.51-2c-1.55.05-3.61.38-3.06-2.4,2,.19,4.3,1.82,5.62-1a2.51,2.51,0,0,0-.62-3.21c-1.83-1.15-3.5,0-5.13.83l-.06-3.45c5.31,2,6.13,1.48,6.1-4.06,0-1,0-2,0-3-.11-5.06-1.17-5.68-6.07-3.54a3.11,3.11,0,0,1,1.12-3.52c.9-.78.74-1.77-.26-2.5a1.49,1.49,0,0,0-2.47.46,23.94,23.94,0,0,1-2.77,3.5c-2.69,2.75-4.41,6.63-9.14,7-2.39.18-1.12,1.74-.27,2.74,4.2,4.9,8.49,9.73,12.62,14.7a8.62,8.62,0,0,0,7.79,3.4c9.66-.61,19.51,1.37,29-2.18l.36.34c2.93,4.21,6.33,3.24,9.86.88l0,0c-1.93,5.43-6.61,3.24-9.86,2.82-3.1-.4-3,.59-2.75,2.61.22,1.49,2.06,3.18.34,4.36-1.55,1.06-3-.72-4.4-1.52-.77-.43-1.51-1.47-2.86-.48,3.21,2.69,4.74,7.09,9.58,8.59-.67-4.51.29-6.95,5.31-5.43,2.16.65,3.69-1,4.68-2.91,2.06-1.53,4.3-3,4-6l0,0a1.91,1.91,0,0,0,2-1c1.07,1.86,3.4,3.27,2.1,6a3,3,0,0,0-2.07,3l0,0c-2.64.71-3.45,3.25-5,5l0,0c-2.71-2.71,3.72-3.63,1.1-6.58-2,2.78-4.06,5.33-8,4.65a1.69,1.69,0,0,0-2.05,2.11c.36,2.14-1.32,3.27-2.09,4.85l0,0c-3.74.54-6.31-1-8.21-4.22a22.48,22.48,0,0,0-3.61-4.09c-1-1-8.3-.56-8.91.49-3.42,5.87,2.89,18.13,9.69,18.73,1.72.15,3.68.15,3.82,2.27.26,4,.15,8,.12,11.94a1.81,1.81,0,0,1-1.91,1.88c-6.66.17-3.4,3.24-1.67,5.77.64,1,1.69,1.63,1.57,3l-4.89-.72c-2.64-4.05-4.16-9.54-11-8.05-1.31.29-2.05-.95-2-2.26.16-2.56-.8-5.23.65-7.69,1.56.82,3.19,2.29,4.81.39a3,3,0,0,0,0-3.72c-1.58-2-3.23-.36-4.81.33-.56-.5-.81-1.48-.33-1.71,4.75-2.21,2.29-4.63.3-7.07-1.43-1.75-2.88-3.5-4.58-5.57-.28,6.34-.28,6.34-3.15,9.37-.17-1.89.88-3.4,1.49-5.06s1.47-3.88-.74-4.58-1.36,1.94-2.08,3a13.6,13.6,0,0,1-1.64,1.67l0,0c-.27-2,1.23-4.89-2.71-5-3.57-.11-6.84.32-8.22,4.19-.43,1.21-.15,2.67-1.95,2.89-.44-4.86,1-9.85-1.12-14.58,3.5-.35,1.8,2.34,2,3.69.22,1.7.54,3,2.56,2.77,1.51-.16,3.63.91,4.25-1.36.42-1.49.94-3.49-.92-4.48-5.36-2.86-8-8.22-11.84-12.47-1.18-1.3-2.44-3.81-4.1-3.17-4.14,1.61-4.82-2.23-6.21-3.89s3.19-1.39,2.45-4.18c-2.31,1.17-3.9-.87-5.92-1.6-.39-2.65,1.76-4,2.83-5.94,1.71-3.08,6.07-3.18,7.07-6.81,1.63-.16,3.6.57,4.81-.71,3.26-3.48,5.78-2.7,7.77,1.52,1.89-2,3.45-3.51,4.83-5.15,2.57-3,3.61-5.75-1.82-6.64a1.92,1.92,0,0,1-1.75-2.05c4.51.71,7.73-.63,10.49-4.67,2.23-3.28,4.65-7.3,10-6.63-1-3.38-3.4-5.16-5.17-7.26-2.54-3-5.21,1.07-7.95.42-.11,0-.31,1.82.76,1.75,5.37-.31,2.46,3.75,2.58,5.52.2,2.85-2.6,1.67-4.2,1.79-2.15.16-4.32.07-6.49.09-1.19-1.23-.71-2.8-.8-4.23s-.28-2.66-2.06-2.77-2.84.63-3.07,2.44c-.12,1,0,2-.92,2.68-5.26-2.37-10.8-.56-16.18-1.07.4-2.24,1.09-4.22,3.89-4.28,3.28.07,6.57.29,9.85.16,2.89-.11-.07-1.31.23-1.94A57.89,57.89,0,0,0,151.29,241.51Zm-26.91,49.37c6.13,3.62,9.52,9.84,14,15,1.92,2.19,3.57,4.5,7.28,3.18-2.74-5.24-7.46-8.86-10.53-13.7C132.56,291.28,129.16,289.5,124.38,290.88Zm30.71-1.19h0v3.49c0,1.68.55,3.06,2.44,3.15,2.26.11,2.7-1.48,2.7-3.33,0-2.17,0-4.33,0-6.5,0-1.69-.67-3-2.63-2.88s-2.48,1.4-2.52,3.07C155.07,287.69,155.09,288.69,155.09,289.69Zm1.08,23.71c-2,.23-5.06-1-5.06,3.2,0,3.75,2.6,3.31,4.83,3.09s5.32,1.55,5.5-2.82C161.6,312.8,158.81,313.47,156.17,313.4Zm13.05,30.83a18.12,18.12,0,0,1-.95-6.49c.06-1.19-.09-2.43-1.79-2.21-1.3.17-1.44,1.29-1.35,2.25.2,2.38.72,4.7,0,7.13a1.94,1.94,0,0,0,2,2.69C169.38,347.63,169.19,346,169.22,344.23Zm-19.64-27.9c-.14-1,.18-2.79-2.06-2.71-1.92.06-2.35,1.47-2.33,3.12,0,1.37.1,2.73,1.91,2.88C149.17,319.78,149.55,318.42,149.58,316.33Zm10.6-36.86c0-1.45-.48-2.63-2.1-2.79-1.8-.18-2.75.89-2.92,2.57s.82,2.31,2.4,2.31S160.2,281.3,160.18,279.47Zm3.07,65.7c0-1.34,0-2.73-1.9-2.82-1.69-.08-2.32.89-2.34,2.44s.24,2.68,2,2.84S163.24,346.68,163.25,345.17Zm10-2.78c-1.87,0-2.08,1.28-2.08,2.7,0,1.24.21,2.39,1.77,2.5,1.74.13,2.34-.89,2.37-2.45S175,342.46,173.22,342.39Zm1.14-4.16c-.12-1.08.29-2.52-1.36-2.73s-1.86,1-1.86,2.26-.19,2.5,1.4,2.73S174.29,339.43,174.36,338.23ZM148.28,251.1c-.19-.55-.28-1.17-.91-.81a1.65,1.65,0,0,0-.68,1.1c-.08.53.33.94.86.69C147.89,251.91,148.06,251.41,148.28,251.1Zm51.56,57.06c-.11,0-.28,0-.33.09s-.07.27-.1.41l.58-.12Z"/><path class="cls-1" d="M177.77,230.93c-3.72-4.89-5.53-9.94-7.94-14.63-14.14-27.58-24.06-56.29-22.77-87.88.23-5.65.37-11.31.62-17a8.43,8.43,0,0,1,1.9-5.57c1.74-1.89,4-3.54,6.49-3,2.2.51,2,3.17,2.34,5.08q9.51,56.8,18.93,113.63C177.8,224.43,179.7,227.18,177.77,230.93Z"/><path class="cls-1" d="M81.19,296.51a27.35,27.35,0,0,1,5.6-14.89l.57-.84,1-1.18,4.33.94.18,4c-.76,1.25-.17,1.92,1,2,2.49.11,5,0,7.48.08.93,0,2.27-.19,2.3,1.19,0,1.12-1.09,1.63-2.12,1.66a57.88,57.88,0,0,1-7,0c-3.54-.3-5.31,1.15-5.39,4.72s1.65,5.74,5,6.29a44.83,44.83,0,0,0,7,.09c.33.34.66.67,1,1l1,1a2,2,0,0,0,1,2l1,1,1,1,1,1,1,1c.19,4.09-2.31,8.55,1.92,13.34V309.52l2.2,1.15c-.62,6.09,0,11.93,3.33,17.28a3.32,3.32,0,0,0,2.41,1.51,15.62,15.62,0,0,1,12.43,15.31l.12,3.68c-2.77,2.08-4.95-.35-7.36-1a2,2,0,0,0-1-2,3.37,3.37,0,0,0-2-2l-1-1a1.89,1.89,0,0,0-2-2c-.1-.77-.18-1.58-1.25-1.55-.11,0-.3.2-.31.32-.08,1.08.73,1.16,1.49,1.3a1.89,1.89,0,0,0,2,2l1,1a1.76,1.76,0,0,0,2,2,1.9,1.9,0,0,0,1,2c-.24.91,1.11,2,0,2.68s-1.89-.2-2.51-1a35.72,35.72,0,0,0-7.75-8.29c-1.18-.84-3.68.26-3.63-2.42,0-2.85,3-1.18,4-2.46-5.82-2.77-9.77-.48-13.1,7.52l-1,1-1,1c-1.58.9-3,1.92-3,4l-1,1c-1.46.14-1.9,1.07-1.91,2.39,0,1.66-.26,3.55,1.94,3.95,2,.36,1.77-1.51,2.11-2.66.61-2.07,2.79-3.31,2.92-5.61,3.2-.75,4.34-3.17,5-6,2-.74,2.82,6.06,5.51.86,1.3,2.69,5.47,3.31,5.26,7.16-3.85-.2-6.42.23-7.57,1.39-.42.43-.94,1.17-.83,1.64.23,1,1,.82,1.95.67,3-.5,3.75.38,3.68,4.06a192.21,192.21,0,0,1-21.2-.15c.63-3.85-.76-7.91,1.21-11.63l1-1c1.11-.7,1-1.37,0-2l1-3c1,.4,2-3,3,0l-.42.49.47-.44c3.3-2.69,2.71-5.36,0-8,.38-4-.78-8,.76-11.92,1.21,1.35,2.61,2.14,4.25.83a3.25,3.25,0,0,0,.92-3.58c-.67-2.76-2.93-2-4.76-2.17-1.44-1.09-1.47-2.18,0-3.28,2.42,0,5,0,4.77-3.36s-2.67-2.66-4.81-2.42l-3.06-2.16c-2.7-3.38-6-1.24-9.15-1.27,2.81,1.89,6,1.05,9,1.45,0,.72,0,1.45-.82,1.84-1.89-.46-3.72-.65-4.28,1.84-.35,1.55-.1,3.11,1.54,3.78,2.31.94,3.28-.62,4-2.49,1.26,2.52.34,5.22.62,7.82.54,5-1.08,10.2,1.08,15.1.44,3.2-3.8,4.65-3,8l-2.93,1.08-.16-.16c-.79-2.94,2-6.66-1.92-8.93l0,0a2.2,2.2,0,0,0-1-2l0,0a2,2,0,0,0-2-1l0,0a2,2,0,0,0-1-2l0,0a3,3,0,0,0-3-3l0,0a1.94,1.94,0,0,0-1-2v0c0-1.39.16-2.94-1.92-3l-.16-2c2.64-2.9,3-13,.66-17.08l.45-1.91,3.88,2.58A4.75,4.75,0,0,0,81.19,296.51Zm6.08,12.89a2.71,2.71,0,0,0-2.62-3.06c-1.58-.13-2.39.86-2.41,2.44s.26,3.17,2.16,3.27A2.62,2.62,0,0,0,87.27,309.4Zm8.11,9.28c-.59-1.33-1-3.09-2.75-3.05-2,0-2.79,1.58-2.68,3.46.09,1.7,1,2.89,2.8,2.7S95.18,320.33,95.38,318.68Zm-10.85-2.81c-1.83.29-2.38,1.53-2.29,3.17.07,1.45.68,2.64,2.31,2.57a2.65,2.65,0,0,0,2.7-2.87C87.3,316.92,86.11,316.19,84.53,315.87Z"/><path class="cls-1" d="M195.22,317.53c1.57-1.77,2.38-4.31,5-5,.31.92-.91,1.82.09,2.91l3.81-2.95a17,17,0,0,1,4,8.11c-3.12.2-6.75-.86-8.27,3.62,2.83-2.54,6.17-1.42,9.29-1.73,3.24,6.44,6.69,12.8,8.23,19.93-6.58,2-2.43,6.18-2,9.61-.58,4.58-5,5.06-7.64,5.1-3.37,0-6.49,1.26-9.79,1.09.52-1.91-.4-2.87-2.2-2.88s-2.7,1-2.22,2.87l-18.41.05c.12-1.34-.93-2-1.57-3-1.73-2.53-5-5.6,1.67-5.77a1.81,1.81,0,0,0,1.91-1.88c0-4,.14-8-.12-11.94-.14-2.12-2.1-2.12-3.82-2.27-6.8-.6-13.11-12.86-9.69-18.73.61-1.05,7.88-1.52,8.91-.49a22.48,22.48,0,0,1,3.61,4.09c1.9,3.22,4.47,4.76,8.21,4.22,1.17,3.62,4.49,4.18,8.82.83-3.51.69-6.08-.66-8.85-.8.77-1.58,2.45-2.71,2.09-4.85a1.69,1.69,0,0,1,2.05-2.11c3.93.68,6-1.87,8-4.65,2.62,2.95-3.81,3.87-1.1,6.58.31.95-.49,2.64,1.3,2.6a1.74,1.74,0,0,0,1.52-2.16C197.52,316.13,196.13,318.1,195.22,317.53Zm-19.95,3.94-1-1a1.93,1.93,0,0,0-2-2l-1-1-1-1-.48-.44c.13.17.27.34.4.52l1,1,1,1a1.94,1.94,0,0,0,2,2l1,1,.49.45Zm21.91,6c-2.45,0-4.9,0-7.35.13a1.33,1.33,0,0,0-1.34,1.65c.1.78.86,1.32,1.34,1,2.35-1.32,5.8.41,7.45-2.73l.39-.5Zm-3.94,18.19c0-.35.06-.69.08-1l15.75.06c.29,1.13.59,2.32,2,2.5.78.11,1.19-.6,1.09-1.28-.24-1.51-1.6-1.37-2.68-1.61-.35-2.51-3.28-1-4.18-2.72,1.3-1.82,1.52-3.64-.25-5.25a1.88,1.88,0,0,0-2.68.09c-1.69,1.64-1.61,3.43-.12,5.2a3.42,3.42,0,0,1-4.95,0c1.91-1.74,1.56-3.5-.08-5.15a1.88,1.88,0,0,0-2.71-.12c-1.77,1.63-1.62,3.47-.27,5.32-.35.93-.71,1.87-1.07,2.8a2.88,2.88,0,0,0-2.79,2.9,38.94,38.94,0,0,1-1.13,10.28,6.69,6.69,0,0,0,2.56-6.3c-.18-2.27-.46-4.16,1.51-5.69,0,1-.06,1.93,0,2.9,0,1.64.66,2.95,2.5,3a2.46,2.46,0,0,0,2.52-2.48c.16-1.62-.37-3-2.12-3.32A14.69,14.69,0,0,0,193.24,345.64Zm13,2.67c-.24-1.63-1-2.92-2.83-2.69s-2.35,1.67-2.21,3.31a2.43,2.43,0,0,0,2.56,2.5C205.59,351.36,206.17,350,206.22,348.31ZM175.6,323.38c2,2.83,3.19,4.58,4.47,6.25a1.38,1.38,0,0,0,2.16.15c.76-.65.92-1.62.08-2.07C180.35,326.65,179.32,324.25,175.6,323.38Zm17.1-4.21c-1.24-.88-2.46-1.71-3.93-.95a1,1,0,0,0,0,1.71C190.21,321,191.52,320.66,192.7,319.17ZM182,349.22a8.52,8.52,0,0,0-1.91-.57c-.43,0-1.1.17-1.24.47-.34.73.14,1.27.89,1.29C180.12,350.41,180.51,350,182,349.22Zm-.92-3.44c-.4-.46-.64-1-1-1a1.39,1.39,0,0,0-1.23.38c-.39.71,0,1.27.79,1.31C180.05,346.44,180.46,346.07,181.07,345.78Z"/><path class="cls-1" d="M113.8,97c-11.8,0-23.6,0-35.41,0-5.68,0-7.77-1.78-7.71-6.08s2.27-6.38,7.67-6.4q35.66-.17,71.31-.08c4.79,0,5.93,1.85,6,8.62.06,4.45-3.36,3.91-6,3.93-12,.13-23.93.06-35.9.06Z"/><path class="cls-1" d="M100.27,343.51c3.33-8,7.28-10.29,13.1-7.52-1.09,1.28-4-.39-4,2.46,0,2.68,2.45,1.58,3.63,2.42a35.72,35.72,0,0,1,7.75,8.29c.62.84,1.53,1.62,2.51,1s-.22-1.77,0-2.68l0,0c2.41.61,4.59,3,7.36,1a13.94,13.94,0,0,0,8.7.89,3.16,3.16,0,0,0,2.8-3.54c-.13-1.8-1.34-2.54-3.06-2.53-2.93,0-6-.54-8.56,1.5a15.62,15.62,0,0,0-12.43-15.31,3.32,3.32,0,0,1-2.41-1.51c-3.29-5.35-4-11.19-3.33-17.28v-.06c2.31.14,2,1.76,1.76,3.25-.39,2.21.14,4.16.74,6.51,2.61-2.22-.65-6.62,3.6-6.81,5.56-.23,3.68-2.66,1.77-5.09-1.42-1.8-3.14-3.38-4.72-5.06-.08-1.67-.16-3.33-.23-5a29.39,29.39,0,0,1,10.53,12c1.12,2.52,2.63,2.85,4.46,3.59-.1,1.8-.28,3.6-.28,5.41,0,.86,1.21,2-.21,2.44a2.45,2.45,0,0,1-2.46-1.33,3,3,0,0,0,.44-4.63,2.72,2.72,0,0,0-3.63,0,3,3,0,0,0,.16,4.63,4.29,4.29,0,0,1-.12,1c-2.12,5.75-1.7,6.26,4.3,5.89.93-.06,1.93,1,2.9,1.53,1.26,4.77,4.66,7.95,7.92,11.33,2-2.1-.27-5.37,2.75-7.32a9.31,9.31,0,0,1,0,1.93c-.63,2.16-2.08,5.32.37,6.11,3.2,1,.72-3.63,2.89-4.45-.12,4.88,6.2,7.1,5.15,12.39,0,.08.55.35.86.39,4.93.7,6.89,4.69,9.19,8.3l-6.19-.11c-.69-3.19-3-4.91-5.76-3.66-2.54,1.14,1.49,2.77.63,4.48a249.18,249.18,0,0,0-36.86,0c.07-3.68-.67-4.56-3.68-4.06-.92.15-1.72.32-1.95-.67-.11-.47.41-1.21.83-1.64,1.15-1.16,3.72-1.59,7.57-1.39.21-3.85-4-4.47-5.26-7.16-2.69,5.2-3.52-1.6-5.51-.86l0,0,.06-1.95c.88-.45,1.71-1,1.62-2.13,0-.11-.27-.32-.35-.29-1.09.39-1.27,1.34-1.38,2.32l-3.95,3.06Zm45.16,5.83c1.85,0,2.09-1.26,2.08-2.67s.12-3.14-2-3.27c-1.8-.1-2.18,1.14-2.2,2.59S143.53,349,145.43,349.34ZM122.32,317.8c-.1-1-.07-2.41-1.93-2.51s-2.25,1-2.29,2.51.13,2.72,1.94,2.83S122.35,319.7,122.32,317.8Zm0,7.15c.13-1.57-.36-2.6-2.15-2.6-1.51,0-2,.86-2,2.21s-.17,2.87,1.77,2.95C121.56,327.58,122.17,326.44,122.28,325Z"/><path class="cls-1" d="M59.57,297.6c.18,4.45-1.47,8.45-3,12.47-1.18-.23-1.32-1.33-1.8-2.15-.85-1.47-2-2.21-3.65-1.34a2.87,2.87,0,0,0-1.26,3.81c.62,1.64,1.86,2.11,3.57,1.49a19.43,19.43,0,0,1,2.79-.58c-1,2-.64,4.48-4.32,4.74-3.15.22-2.9,3.65.48,6.41a10.56,10.56,0,0,1-1,5.07h0l-1,1h0c-3.13,1.94-7.84,2.65-6,8.27-3.22-.35-3.32-4-6-4.28l0,0c0-2.8.1-5.6,0-8.39-.11-2.34.94-5.08-1.94-6.64-2-4.84-2.11-5.2-.86-5.44,4-.74,1-4.05,2.28-5.94,1-1.5-.8-2.44-2.44-2.58h0c2.72-4.79.8-11.91,7.45-14.76.27-.12.28-1.24.14-1.83-1.33-5.76-.27-11.6-.62-17.39.05-1-.15-2.13.77-2.94l1.21.46c0,2,0,4,.07,6,0,1,0,2.26,1.45,2,1.17-.22,1.4-1.25,1-2.35-.48-1.43-.86-2.86.05-4.44,2.07.81,2.52,2.43,2.45,4.37-.29,7.62.57,15.27-.51,22.87-.13.86-.35,1.67.42,2.23a1.38,1.38,0,0,0,1.27-.12c.75-.63.35-1.45.25-2.28-.23-2.08-1.84-4.62,1.56-5.75l1,1,1,1C55.27,294.23,56.57,296.66,59.57,297.6Zm-18.26-5.09-.44-.45.4.48,1,1a19.2,19.2,0,0,0,.76,2.29c.46,1,.75,2.27,2.2,2.23.31,0,.82-.53.89-.89.28-1.35-.74-2.09-1.64-2.73a10,10,0,0,0-2.2-.91Zm0,9-1-1c-.13-.76-.21-1.58-1.28-1.54a.49.49,0,0,0-.31.32c0,1.07.77,1.17,1.55,1.26l1,1,.48.43C41.59,301.83,41.46,301.65,41.32,301.48Zm2,3-.45-.43.4.49c.14,1.45-.09,3.13,1.93,3.48.27.05.91-.53.94-.86C46.31,305.17,44.91,304.7,43.31,304.49ZM38,315.13c2.11,3.23,4.92,2.34,7.74,1.36C43.31,315.21,40.59,316,38,315.13Z"/><path class="cls-1" d="M38.28,332.5c2.73.23,2.83,3.93,6,4.28-1.88-5.62,2.83-6.33,6-8.27-1,3.79-1.49,7.52,1,11l-.08.08c-1.44.06-2.91-.37-2.47,2.26a67.12,67.12,0,0,1,.45,9.74c0,1.09.63,2.47-.46,3.22-1.56,1.06-1.58-1.95-3.28-1.32-.1,1.52-.22,3.13-.33,4.75H24.49c.4-2.59,3.86-4.34,2-7.53,2.25-.72,3.77-5.06,4.16-4.28,1.9,3.85,3.23-.56,4.62.11l0,0c.44,1.71,1.26,2.82,1.9.25.48-1.92,1.39-2.36,3-2.19.34,1.23-1.41,2.47-.06,3.63a1.06,1.06,0,0,0,1.66-.42c.66-1.56.58-2.91-1.47-3.33l-1-2.14c-2.34,1.6-3.43.27-5.19-1.41-1.35-1.28-4.13-.74-5.81,1.05s-3.53,3.88-5.22,5.88c-2.56,3-5,6.09-8.8,7.73-1.51-2-5-2.27-5.08-5.62,1.93-.52,4.64-.25,4.06-3.53-.53-3-2.92-1.72-4.69-1.78.8-6.66,4-12.32,7.56-17.82-.29,2.79-1.35,5.78-.7,8.32,1,3.83.19,5.72-4.35,6,1.75,1.77,4.65,1.41,4.19,4.33-.19,1.15-.75,3,.82,3.53,1.75.54,2.3-1.41,3.24-2.5,3.36-3.86,5.39-9.12,11.46-10.45-3.66-2.56-3.9-5.89-3.15-10.3,1,3.93,1,8,5.31,8.64C34.74,334.61,37.52,335.87,38.28,332.5ZM48,337.82c-.35-1.47-.69-2.94-1-4.41C46.38,335.08,45.66,336.74,48,337.82Z"/><path class="cls-1" d="M199.24,301.57c0,.64.09,1.27.13,1.9l-1.16,1.07,0,0-2,1c-.08-1.41.26-3.08-2-3l0,0c-.66-1.52,3.57-2.6.37-4.35-2.53-1.39-3.78-.87-4.07,2.19-.09.94-1.41,1.29-2.29.17l.4-.47-.45.41-3.82,1.18-.36-.35c-.06-1.5.87-3.56-1.79-3.72-1.7-.1-3.81-.62-4,2.22,0,.63-.43,1.5-1.17,1.28-5.53-1.64-11.43.9-16.87-1.51l.2-.2h14.29l0-1.39c-2.3-.95-4.77-.31-7.16-.44-1.13-.06-2.64.28-2.9-1.2-.3-1.7,1-1.64,2.29-1.54,1.67.12,1.57-1.49.75-1.72-6.66-1.88-.7-3.2.26-4.4-.67-1.73-3-.53-3.15-2.29-.1-.9.53-1.5,1.5-1.62.68-.09,1.78.66,1.85-.78,0-1.1-.8-1.29-1.67-1.4s-1.8-.26-1.67-1.33c.06-.49.95-1.37,1.2-1.28,5,1.68,10.39-1.05,15.26,1.49l.09.09c.25,1.74-1.66,2.3-2,3.44,5.37,2.5,7.67-2.19,11-4.59a173.13,173.13,0,0,1,8.81,19.9c-.37.19-1.06.38-1.06.58C198,301.72,198.76,301.44,199.24,301.57Zm-12.07-11.3v-.39h-14.7v.39Zm-2.1,5.1v-.51H172.39v.51Z"/><path class="cls-1" d="M59.79,333.08c3.53,1.39,5.35-1.8,7.95-2.93a18.63,18.63,0,0,1,.4,7.32c-1.47.3-1.62-2.39-2.85-1.62-.63,4.72-1.33,9.12-1,13.56.09,1.09-.23,3.29.49,3.1,4.3-1.1,2,3.42,4.16,4.63.72-4,2-6.21,4.2-1.16,1.79-.32.43-2.75,2.14-2.89,1.56.41.3,2.79,2.65,2.87.94-7.8-.72-15.77,1.3-23.47.94.22,2,1.74,2.78,0a1.77,1.77,0,0,0-.64-1.62c-1.53-.64-2,.34-2.11,1.68-1.45,0-3,.13-3-2,.63-.11,1.35-.16,1.43-1,0-.17-.39-.57-.56-.55-.83.11-.87.82-1,1.46-2.08.1-4.13.25-4-2.86.08-1.46-1-2-2.25-2.13l2.28-5.91c2.12.07,3.1,3.76,5.84,1.83l3.14,1.13v0a2,2,0,0,0,1,2l0,0a3,3,0,0,0,3,3l0,0a2.08,2.08,0,0,0,1,2l0,0a1.93,1.93,0,0,0,2,1l0,0a2,2,0,0,0,1,2l0,0c.59,2.36-1.77,3.36-2.39,5.17-3.27-3.39-2.64,1.42-3.87,1.76-6.06,1.72-3,6.48-3.12,9.74-.07,2.72.29,5.58.23,8.39-7.92,1.82-15.92.66-23.9.68,1.35-1.52,1-3.39,1.06-5.19,0-5.11,0-10.23,0-15.34C57.24,335.66,57.17,333.65,59.79,333.08Z"/><path class="cls-1" d="M38.28,332.5c-.76,3.37-3.54,2.11-5.28,1.85-4.32-.64-4.28-4.71-5.31-8.64-.75,4.41-.51,7.74,3.15,10.3-6.07,1.33-8.1,6.59-11.46,10.45-.94,1.09-1.49,3-3.24,2.5-1.57-.49-1-2.38-.82-3.53.46-2.92-2.44-2.56-4.19-4.33,4.54-.26,5.33-2.15,4.35-6-.65-2.54.41-5.53.7-8.32.81-2.62,1.47-5.31,3.44-7.39,4.28-.3,4.44-2.53,2.64-5.66l1.2-3.4,4.82,2.18c.13.46.27.91.4,1.36l.4-.27-.77-1.11c.92-2.18,1.86-4.35,2.77-6.54.78-1.9,1.64-3.63,4.21-2.45h0c.16,3.72-1,8.33-2.53,10.34-3,4-.88,4.89,1.52,6.66.92,3,1.61,6.15.67,9.21-1.26,4.07,1.2,3.11,3.34,2.78ZM23.29,321c0,3.46.61,6.81-.55,10.15a1.36,1.36,0,0,0,1.2,1.79c.33.05,1.09-.41,1.08-.62C24.9,328.47,26.41,324.38,23.29,321Z"/><path class="cls-1" d="M59.57,297.6c-3-.94-4.3-3.37-5.31-6.05l0-.05c2.51-.08,3.28,3.07,5.69,3.32.48-1.57.62-3-.22-4.09-3.06-3.85-2.68-8.5-2.25-12.71.34-3.43,1-6.27-2.24-8.48h0c2.8.29,4.33-.39,3.13-3.66a11.18,11.18,0,0,1-.14-3.34h0c1.17-.68,4.53.44,2.62-2.83-3.38-5.77-4.78-6.23-10.49-4.28a5.87,5.87,0,0,1-2,0l2.82-6.89c3.08,1.16,2.94-4.16,6-3-.75,3.43.9,6.09,3,8.44,3,3.29,5.68,6.65,6.48,11.49,3.46-2.42,5-6.13,8.25-8-3.15,8.34-5.81,16.83-9.22,25.09-1.77,4.3-2.74,9.06-4.62,13.44C60.84,296.81,60.57,297.53,59.57,297.6Z"/><path class="cls-1" d="M181.2,281.49c-4.87-2.54-10.28.19-15.26-1.49-.25-.09-1.14.79-1.2,1.28-.13,1.07.84,1.23,1.67,1.33s1.72.3,1.67,1.4c-.07,1.44-1.17.69-1.85.78-1,.12-1.6.72-1.5,1.62.19,1.76,2.48.56,3.15,2.29-1,1.2-6.92,2.52-.26,4.4.82.23.92,1.84-.75,1.72-1.3-.1-2.59-.16-2.29,1.54.26,1.48,1.77,1.14,2.9,1.2,2.39.13,4.86-.51,7.16.44l0,1.39H160.39a12.91,12.91,0,0,0,1.83-8.39c-.65-5.32,1-10.71-.52-16-.52-1.78,1-2.41,2.35-2.38,7.4.21,14.87-1,22.21.87,2.93,1.41,2.88,4.51,4,7-3.32,2.4-5.62,7.09-11,4.59.38-1.14,2.29-1.7,2-3.44l1-1c2.06-.45,3.63-1.43,3.81-3.75,0-.29-.64-.93-.87-.88-2.16.46-2.23,2.51-2.95,4.07a2.41,2.41,0,0,0-.08.48Z"/><path class="cls-1" d="M160.46,357.57c-2.3-3.61-4.26-7.6-9.19-8.3-.31,0-.87-.31-.86-.39,1.05-5.29-5.27-7.51-5.15-12.39l0,0a1.87,1.87,0,0,0,2-2l0,0a1.93,1.93,0,0,0,1-2l0,0a2.11,2.11,0,0,0,2-1l0,0c2.87-3,2.87-3,3.15-9.37,1.7,2.07,3.15,3.82,4.58,5.57,2,2.44,4.45,4.86-.3,7.07-.48.23-.23,1.21.33,1.71,0,1,0,2,0,3-1.45,2.46-.49,5.13-.65,7.69-.08,1.31.66,2.55,2,2.26,6.81-1.49,8.33,4,11,8.05C167,359.53,163.73,358.19,160.46,357.57Z"/><path class="cls-1" d="M28.28,312.53l-4.82-2.18c2.34-5.54,4.6-11.11,7-16.61,3.38-7.65,6.87-15.26,10.37-22.86.25-.55.93-.9,1.41-1.34.35,5.79-.71,11.63.62,17.39.14.59.13,1.71-.14,1.83-6.65,2.85-4.73,10-7.45,14.76-2.57-1.18-3.43.55-4.21,2.45-.91,2.19-1.85,4.36-2.77,6.54Z"/><path class="cls-1" d="M156.28,261.57a6.71,6.71,0,0,0,5.77-2.14c1.46-1.42,3.37-.84,5.4-.67-2.29,3-1.19,3.35,2,3.52,4.06.21,7.84.5,10.9-2.75,1.65.77,2,2.22,2,3.85a3.91,3.91,0,0,0-2.1,4.18l0,0c-6,1.94-12.07.73-18.19,1,0-2.58,3.12-4,1.15-7.2-1.88,4.81-5.42,7.83-8.15,11.47-1.17,1.57-2.19,2.13-3-.36-.59-1.87-1.23-3.7-3.1-4.91-1.12-.73-.85-2.12,0-3.11,2.08-2.52,4.23-5,6.45-7.58,1.31,1.72.73,3.23.82,4.64-1.45,1.2-3.43,2-3.51,4.26,0,.2.84.71,1.11.61C156,265.54,156.18,263.55,156.28,261.57Z"/><path class="cls-1" d="M80.11,357.56c.06-2.81-.3-5.67-.23-8.39.08-3.26-2.94-8,3.12-9.74,1.23-.34.6-5.15,3.87-1.76.62-1.81,3-2.81,2.39-5.17,3.9,2.27,1.13,6,1.93,8.93-.33.34-.65.68-1,1a1.91,1.91,0,0,0-.93,2.07l-.43.39c.09,0,.21,0,.26-.06a1.53,1.53,0,0,0,.16-.34,2,2,0,0,0,1.07-1.94l1-1,2.93-1.08h0l-1,3,0,0c-1,.63-2.3,1.08-2.26,2.59,0,.15.8.28,1.23.42l0,0c-2,3.72-.58,7.78-1.21,11.63l-6.75.11c-2.06-5.06-.26-10.54-1.61-17.07-2.44,6.23-1.1,11.37-1.42,16.37Z"/><path class="cls-1" d="M45.15,358.21c.11-1.62.23-3.23.33-4.75,1.7-.63,1.72,2.38,3.28,1.32,1.09-.75.48-2.13.46-3.22a67.12,67.12,0,0,0-.45-9.74c-.44-2.63,1-2.2,2.47-2.26l.46,1.29c.13-.09.37-.25.37-.26-.24-.38-.49-.74-.75-1.11-2.52-3.45-2.08-7.18-1-11h0l1-1h0l2.11-.06,2.79,5.43c-.5,3.88.41,7.54-1.83,11.77-1.6,3-.54,8.92.16,13.5A33.73,33.73,0,0,1,45.15,358.21Z"/><path class="cls-1" d="M14.33,355.55c3.76-1.64,6.24-4.72,8.8-7.73q2.54-3,5.22-5.88c1.68-1.79,4.46-2.33,5.81-1.05,1.76,1.68,2.85,3,5.19,1.41l1,2.14-.13.12c-1.66-.17-2.57.27-3,2.19-.64,2.57-1.46,1.46-1.9-.25.07-.14.15-.28.23-.41l-.21.43c-1.39-.67-2.72,3.74-4.62-.11-.39-.78-1.91,3.56-4.16,4.28,1.83,3.19-1.63,4.94-2,7.53C20.74,358.69,17.1,358.78,14.33,355.55Z"/><path class="cls-1" d="M52.28,289.53c-3.4,1.13-1.79,3.67-1.56,5.75.1.83.5,1.65-.25,2.28a1.38,1.38,0,0,1-1.27.12c-.77-.56-.55-1.37-.42-2.23,1.08-7.6.22-15.25.51-22.87.07-1.94-.38-3.56-2.45-4.37-.91,1.58-.53,3-.05,4.44.37,1.1.14,2.13-1,2.35-1.48.29-1.42-1-1.45-2-.07-2-.05-4-.07-6,3.54-1.49,4-3.84,2-6.92l1-1.7c2.67,3.71,6,6.93,8,11.1h0c-2.36-.74-3.13,0-3,2.56.19,5.8,0,11.62,0,17.42Z"/><path class="cls-1" d="M55.29,269.54c-2-4.17-5.37-7.39-8-11.1,0-1.15,0-2.34,1.2-3a6.13,6.13,0,0,0,2,0c5.71-2,7.11-1.49,10.49,4.28,1.91,3.27-1.45,2.15-2.62,2.83-.56-2.09-1.33-4-3.62-4.79-.21-.06-1,.66-.91.86a5.27,5.27,0,0,0,4.53,3.93,11.18,11.18,0,0,0,.14,3.34C59.62,269.15,58.09,269.83,55.29,269.54Z"/><path class="cls-1" d="M54.51,358.16c-.7-4.58-1.76-10.47-.16-13.5,2.24-4.23,1.33-7.89,1.83-11.77,1.22-.2,2.46-.84,3.61.2-2.62.56-2.55,2.57-2.54,4.62,0,5.11,0,10.23,0,15.34,0,1.8.29,3.67-1.06,5.19Z"/><path class="cls-1" d="M215.4,352c-.44-3.43-4.59-7.63,2-9.61C219.91,346.27,219.4,349.51,215.4,352Z"/><path class="cls-1" d="M81.3,357.56c.32-5-1-10.14,1.42-16.37,1.35,6.53-.45,12,1.61,17.07C83.21,358.46,82.11,358.64,81.3,357.56Z"/><path class="cls-1" d="M57.29,245.54c-3.08-1.17-2.94,4.15-6,3a29.31,29.31,0,0,1,3.12-8.05c1.37,1.39,3.21.91,4.85,1.23-.65,1.28-1.31,2.56-2,3.84Z"/><path class="cls-1" d="M149.14,358.28c.86-1.71-3.17-3.34-.63-4.48,2.8-1.25,5.07.47,5.76,3.66C152.78,359.11,150.9,358.32,149.14,358.28Z"/><path class="cls-1" d="M8.62,344.62c1.77.06,4.16-1.27,4.69,1.78.58,3.28-2.13,3-4.06,3.53C7.91,348.3,8.51,346.43,8.62,344.62Z"/><path class="cls-1" d="M185.2,271.62c-1.4-1.67-6.38,1-4.95-4.09l0,0,3-2C185.94,266.88,185.11,269.4,185.2,271.62Z"/><path class="cls-1" d="M209.16,322.47c-3.12.31-6.46-.81-9.29,1.73,1.52-4.48,5.15-3.42,8.27-3.62Z"/><path class="cls-1" d="M46.21,260.14c2,3.08,1.57,5.43-2,6.92L43,266.6C43.94,264.37,44.15,261.8,46.21,260.14Z"/><path class="cls-1" d="M22.26,313.75c1.8,3.13,1.64,5.36-2.64,5.66C19.65,317.13,21.33,315.61,22.26,313.75Z"/><path class="cls-1" d="M193.55,358.19c-.48-1.9.41-2.88,2.22-2.87s2.72,1,2.2,2.88Z"/><path class="cls-1" d="M175.3,248.45c-1.24-.63-3.11,1.61-3.81-.53s1.37-2.12,2.76-2.42l0,.05.85.95Z"/><path class="cls-1" d="M204.14,312.47l-3.81,2.95c-1-1.09.22-2-.09-2.91l0,0a3.24,3.24,0,0,0,2.12-2.14A1.69,1.69,0,0,1,204.14,312.47Z"/><path class="cls-1" d="M183.2,265.53l-3,2a3.91,3.91,0,0,1,2.1-4.18A2.16,2.16,0,0,1,183.2,265.53Z"/><path class="cls-1" d="M178,251.69l-2.75-.15h0c.1-.71.19-1.42.29-2.12C176.77,249.72,177.8,250.25,178,251.69Z"/><path class="cls-1" d="M202.34,310.39a3.24,3.24,0,0,1-2.12,2.14,3,3,0,0,1,2.07-3C202.31,309.79,202.33,310.09,202.34,310.39Z"/><path class="cls-1" d="M198.21,304.54l1.16-1.07a4.46,4.46,0,0,1,.82,0A1.91,1.91,0,0,1,198.21,304.54Z"/><path class="cls-1" d="M199.24,301.57c-.48-.13-1.25.15-1.25-.66,0-.2.69-.39,1.06-.58C199.11,300.74,199.18,301.16,199.24,301.57Z"/><path class="cls-1" d="M175.12,246.5l-.85-.95Z"/><path class="cls-1" d="M98.24,47c.11-6.14,2.48-7.64,6.18-5.53,2.87,1.63,5.54,3.62,8.29,5.45a2.22,2.22,0,0,1,1.1,2.51c-.67,3.53-3.31,5.67-5.67,7.92a2.75,2.75,0,0,1-3.69-.39C102.1,53.17,98.65,49.92,98.24,47Z"/><path class="cls-1" d="M131,45.78c-1.41-1-2.44-2.47-4.36-2.2-3.19.44-5.21-.76-5.31-4.22a10.92,10.92,0,0,1,4.21-9.14c1-.79,2.06,0,2.34,1C129.19,36,132.11,40.37,131,45.78Z"/><path class="cls-1" d="M115.26,298.41c.07,1.67.15,3.33.22,5,.36,3-1.7,5-3.14,7.2v.06l-2.2-1.15c0-.24-.06-.48-.1-.71.07-5.16.16-10.31.19-15.46,0-1.61.37-3.48-2-3.93,0-1.67.53-3.58-2-4l-.8-.9c-.13-.79-.28-1.56-1.14-1.9-2.76-3-7-1.37-10.11-3.2a3.22,3.22,0,0,0-3.17-1.91c.74-1,1.48-2.05,2.23-3.07l2.86-.19c11.82,1.74,14.61-1.66,13.92-13.32,0-.16,0-.33-.06-.49a2.07,2.07,0,0,0-.72-2.11c0-.92-.07-1.83-.1-2.75,1.2-1,1.18-2,0-3.05-1.08-4.67-4.35-4.72-8.07-3.81-5.94-2.33-12.14-.67-18.2-1.13-2.63-.2-5.76.28-5.75-3.68,0-3.55,3.34-3.7,5.45-3.75,6.61-.18,13.25.24,19.88.45,6.15.2,7.37-.63,7.74-6.84a88.53,88.53,0,0,0-.65-19.91c-.57-3.43-2.26-4.48-5.4-4.33-3,.15-6,.21-9,.16-1.91,0-3.92-.41-3.67-3,.21-2.15,1.83-3.08,3.88-3.1,2.33,0,4.66.23,7,.15,5-.16,8-2.68,8-7.68,0-17,.82-33.93-.57-50.88-.24-2.87,0-5.44,3.69-5.77,4.09-.36,4.58,2.16,4.53,5.39-.21,16-.33,31.95-.5,47.93-.11,9.33,1.25,10.77,10.44,10.88,2.38,0,5.13-.11,5.13,3.18,0,3.5-2.82,3-5.15,2.89-8.55-.38-10.08.9-10.3,9.28a123.75,123.75,0,0,0,.35,12.48c.42,5.51,2.52,7.62,8,8.42a53.1,53.1,0,0,0,18.35,0c2.43-.49,5-.56,6.92,1.69a57.89,57.89,0,0,1-21,4c-3.89-2.43-7-.19-10.08,1.78-2.8.06-3.49,2-3.89,4.28a5.37,5.37,0,0,0,0,.8c-.27.38-.55.75-.82,1.12l-.13,9c0,1,.06,2,.1,2.95.65,6.14,6.23,7.8,10,11.07-1,3.63-5.36,3.73-7.07,6.81-1.07,1.94-3.22,3.29-2.83,5.94,0,1.51,0,3-.07,4.52l0,2.42C115.36,297,115.31,297.69,115.26,298.41Z"/><path class="cls-1" d="M76.32,330.55c0,2.11,1.52,2,3,2l0,0c-2,7.71-.36,15.68-1.3,23.48-2.35-.08-1.09-2.46-2.65-2.87-1.71.14-.35,2.57-2.14,2.89-2.24-5.05-3.48-2.85-4.2,1.16-2.16-1.21.14-5.73-4.16-4.63-.72.19-.4-2-.49-3.1-.36-4.44.34-8.84,1-13.56,1.23-.77,1.38,1.92,2.85,1.62a18.63,18.63,0,0,0-.4-7.32l.09.07c.78,0,1.84.47,2-.75.08-.78-.8-.87-1.45-1a5.18,5.18,0,0,1,1.67-3c1.28.17,2.33.67,2.25,2.13-.17,3.11,1.88,3,4,2.86Z"/><path class="cls-1" d="M75,257.48c-3.28,1.86-4.79,5.57-8.25,8-.8-4.84-3.53-8.2-6.48-11.49-2.1-2.35-3.75-5-3-8.44h0c2.27-1,1.32,3.87,4,2.19l8.11.07c2.11,1.58,4.52.48,6.78.77C78.77,251.92,76.6,254.67,75,257.48Z"/><path class="cls-1" d="M110,260.41c0,.16,0,.33.06.49.69,11.66-2.1,15.06-13.92,13.33.76-2.87,4.21-4,5-7.59-3.48.6-4.51,3.75-6.92,4.89-.36-3.79,1-7,3.28-9.93C101.56,259.89,105.87,261,110,260.41Z"/><path class="cls-1" d="M69.35,247.81l-8.11-.07c-1.08-1.89-1.09-4-1.08-6.07,2.43-.12,5.07.31,7.27-.48,4.46-1.62,5.15.51,5,4.09C71.08,245.73,69.64,246.07,69.35,247.81Z"/><path class="cls-1" d="M79.86,300.44c2.37,4.09,2,14.18-.66,17.08L78,316c1.8-1.33,1.24-3.23,1.22-5C79.75,307.5,76.23,303.75,79.86,300.44Z"/><path class="cls-1" d="M78,316l1.21,1.52c0,.66.1,1.32.16,2l-1.22,1.9c-2.74,1.93-3.72-1.76-5.84-1.83-.16-1.58.64-2.82,1.44-4.06Z"/><path class="cls-1" d="M56.17,311.3a19.43,19.43,0,0,0-2.79.58c-1.71.62-3,.15-3.57-1.49a2.87,2.87,0,0,1,1.26-3.81c1.61-.87,2.8-.13,3.65,1.34.48.82.62,1.92,1.8,2.15C56.4,310.48,56.28,310.89,56.17,311.3Z"/><path class="cls-1" d="M109.21,255.55c0,.92.07,1.83.1,2.75l-11.17.1,1.32-2.82Z"/><path class="cls-1" d="M101.14,248.69c3.72-.91,7-.86,8.07,3.81h-8.75C100.69,251.23,100.91,250,101.14,248.69Z"/><path class="cls-1" d="M100.46,252.5h8.75c1.18,1,1.2,2,0,3.05l-9.75,0C99.79,254.55,100.13,253.53,100.46,252.5Z"/><path class="cls-1" d="M98.14,258.4l11.17-.1a2.07,2.07,0,0,1,.72,2.11c-4.16.56-8.47-.52-12.52,1.19C97.45,260.48,97.07,259.3,98.14,258.4Z"/><path class="cls-1" d="M94.23,271.53c2.41-1.14,3.44-4.29,6.92-4.89-.77,3.57-4.22,4.72-5,7.59l-2.86.18C93.62,273.45,93.93,272.49,94.23,271.53Z"/><path class="cls-1" d="M78,316l-4.25-.49c.14-3.55,4.1-2.46,5.47-4.51C79.23,312.77,79.79,314.67,78,316Z"/><path class="cls-1" d="M69.35,247.81c.29-1.74,1.73-2.08,3.07-2.53l3.71,3.3C73.87,248.29,71.46,249.39,69.35,247.81Z"/><path class="cls-1" d="M60.16,241.67c0,2.09,0,4.18,1.08,6.07-2.65,1.68-1.7-3.17-4-2.19.66-1.28,1.32-2.56,2-3.84A1.18,1.18,0,0,1,60.16,241.67Z"/><path class="cls-1" d="M91.08,277.48a3.22,3.22,0,0,1,3.17,1.91c-.51.38-1,.76-1.52,1.15l-4.33-.94C88.61,278,89.66,277.52,91.08,277.48Z"/><path class="cls-1" d="M81.19,296.51a4.75,4.75,0,0,1,3,4.6l-3.88-2.58A2.13,2.13,0,0,1,81.19,296.51Z"/><path class="cls-1" d="M53.39,327.46l-2.11.06a10.56,10.56,0,0,0,1-5.07C54.22,323.8,52.51,325.91,53.39,327.46Z"/><path class="cls-1" d="M68.35,328.52c.65.08,1.53.17,1.45,1-.13,1.22-1.19.78-2,.75C68,329.65,68.17,329.08,68.35,328.52Z"/><path class="cls-1" d="M87.36,280.78l-.57.84C86.46,281,86.74,280.77,87.36,280.78Z"/><path class="cls-1" d="M160.19,299.59c5.44,2.41,11.34-.13,16.87,1.51.74.22,1.13-.65,1.17-1.28.2-2.84,2.31-2.32,4-2.22,2.66.16,1.73,2.22,1.79,3.72-9.45,3.55-19.3,1.57-29,2.18a8.62,8.62,0,0,1-7.79-3.4c-4.13-5-8.42-9.8-12.62-14.7-.85-1-2.12-2.56.27-2.74,4.73-.34,6.45-4.22,9.14-7a23.94,23.94,0,0,0,2.77-3.5,1.49,1.49,0,0,1,2.47-.46c1,.73,1.16,1.72.26,2.5a3.11,3.11,0,0,0-1.12,3.52c0,3.53,0,7.05,0,10.58l.06,3.45c0,1.13.08,2.26.13,3.39-.55,2.78,1.51,2.45,3.06,2.4A16.57,16.57,0,0,1,160.19,299.59Z"/><path class="cls-1" d="M125.4,276.56c-3.8-3.27-9.38-4.93-10-11.07l15.2.08c1.48,0,3.2.27,4-1.2,1.33-2.38,3.06-.95,4.67-.82l0,0a1.92,1.92,0,0,0,1.75,2.05c5.43.89,4.39,3.61,1.82,6.64-1.38,1.64-2.94,3.14-4.83,5.15-2-4.22-4.51-5-7.77-1.52C129,277.13,127,276.4,125.4,276.56Zm11.86-5c1.63-.11,2.9-.68,2.86-2.58,0-.32-.61-1-.82-.92-1.57.35-1.58,1.83-2,3a2.52,2.52,0,0,0-.06.48,1.28,1.28,0,0,0-.35.18c-.06.06-.05.19-.06.28Z"/><path class="cls-1" d="M115.43,293.83c0-1.5,0-3,.07-4.52,2,.73,3.61,2.77,5.92,1.6.74,2.79-3.91,2.46-2.45,4.18s2.07,5.5,6.21,3.89c1.66-.64,2.92,1.87,4.1,3.17,3.85,4.25,6.48,9.61,11.84,12.47,1.86,1,1.34,3,.92,4.48-.62,2.27-2.74,1.2-4.25,1.36-2,.22-2.34-1.07-2.56-2.77-.19-1.35,1.51-4-2-3.69h-3c-1.83-.74-3.34-1.07-4.46-3.59a29.39,29.39,0,0,0-10.53-12c0-.72.1-1.44.14-2.15C116.4,295.46,116.43,294.65,115.43,293.83Z"/><path class="cls-1" d="M145.26,336.49c-2.17.82.31,5.49-2.89,4.45-2.45-.79-1-3.95-.37-6.11a9.31,9.31,0,0,0,0-1.93c-3,2-.72,5.22-2.75,7.32-3.26-3.38-6.66-6.56-7.92-11.33l3-.31c1.8-.22,1.52-1.68,1.95-2.89,1.38-3.87,4.65-4.3,8.22-4.19,3.94.12,2.44,3,2.71,5a2,2,0,0,0-1,2l-1,1c-.77.11-1.55.21-1.5,1.26a.45.45,0,0,0,.31.32c1.06,0,1.1-.8,1.22-1.54l1-1a1.94,1.94,0,0,0,1-2,13.6,13.6,0,0,0,1.64-1.67c.72-1-.2-3.7,2.08-3s1.33,2.95.74,4.58-1.66,3.17-1.49,5.06l0,0a2.09,2.09,0,0,0-2,1l0,0a2.1,2.1,0,0,0-1,2l0,0a1.88,1.88,0,0,0-2,2Z"/><path class="cls-1" d="M139.3,254.54c2.17,0,4.34.07,6.49-.09,1.6-.12,4.4,1.06,4.2-1.79-.12-1.77,2.79-5.83-2.58-5.52-1.07.07-.87-1.78-.76-1.75,2.74.65,5.41-3.42,7.95-.42,1.77,2.1,4.13,3.88,5.17,7.26-5.39-.67-7.81,3.35-10,6.63-2.76,4-6,5.38-10.49,4.67l0,0c-.08-1.44-.17-2.87-.26-4.31Z"/><path class="cls-1" d="M194.21,302.5c2.27,0,1.93,1.63,2,3l0,0a1.82,1.82,0,0,0-2,2l0,0-6.32,1.82c2.47,1.82,4.48.84,6.27,1.16l.05.05c-1,1.9-2.52,3.56-4.68,2.91-5-1.52-6,.92-5.31,5.43-4.84-1.5-6.37-5.9-9.58-8.59,1.35-1,2.09,0,2.86.48,1.41.8,2.85,2.58,4.4,1.52,1.72-1.18-.12-2.87-.34-4.36-.3-2-.35-3,2.75-2.61C187.6,305.74,192.28,307.93,194.21,302.5ZM186,309.89l-.37-1a5.36,5.36,0,0,0-1.06.48c-.06,0,.17.74.28.74A4.15,4.15,0,0,0,186,309.89Z"/><path class="cls-1" d="M124.37,290.87c4.79-1.37,8.19.41,10.79,4.49,3.07,4.84,7.79,8.46,10.53,13.7-3.71,1.32-5.36-1-7.28-3.18C133.9,300.72,130.51,294.5,124.37,290.87Z"/><path class="cls-1" d="M134.36,328.58l-3,.31c-1-.54-2-1.59-2.9-1.53-6,.37-6.42-.14-4.3-5.89a4.29,4.29,0,0,0,.12-1l3,0a2.45,2.45,0,0,0,2.46,1.33c1.42-.45.22-1.58.21-2.44,0-1.81.18-3.61.28-5.41h3C135.34,318.73,133.92,323.72,134.36,328.58Z"/><path class="cls-1" d="M148.43,288.33c0-3.53,0-7.05,0-10.58,4.9-2.14,6-1.52,6.07,3.54,0,1,0,2,0,3C154.56,289.81,153.74,290.35,148.43,288.33Z"/><path class="cls-1" d="M139.3,254.54l-.3,4.7c-2.38,1.16-4.48.07-6.61-.83h0a1.19,1.19,0,0,0,0-.77,6,6,0,0,0,0-4.2,1.28,1.28,0,0,0,0-.75l.06,0c1-.67.79-1.73.91-2.68.23-1.81,1.32-2.54,3.07-2.44s2,1.35,2.06,2.77S138.11,253.31,139.3,254.54Z"/><path class="cls-1" d="M155.09,289.69c0-1,0-2,0-3,0-1.67.61-3,2.52-3.07s2.6,1.19,2.63,2.88c0,2.17,0,4.33,0,6.5,0,1.85-.44,3.44-2.7,3.33-1.89-.09-2.43-1.47-2.44-3.15v-3.49Z"/><path class="cls-1" d="M156.17,313.4c2.64.07,5.43-.6,5.27,3.47-.18,4.37-3.4,2.61-5.5,2.82s-4.83.66-4.83-3.09C151.11,312.42,154.13,313.63,156.17,313.4Z"/><path class="cls-1" d="M188.26,300.55c.88,1.12,2.2.77,2.29-.17.29-3.06,1.54-3.58,4.07-2.19,3.2,1.75-1,2.83-.37,4.35-3.53,2.36-6.93,3.33-9.86-.88l3.82-1.17Z"/><path class="cls-1" d="M169.22,344.23c0,1.76.16,3.4-2.09,3.37a1.94,1.94,0,0,1-2-2.69c.7-2.43.18-4.75,0-7.13-.09-1,.05-2.08,1.35-2.25,1.7-.22,1.85,1,1.79,2.21A18.12,18.12,0,0,0,169.22,344.23Z"/><path class="cls-1" d="M148.62,295.17c-.05-1.13-.09-2.26-.13-3.39,1.63-.79,3.3-2,5.13-.83a2.51,2.51,0,0,1,.62,3.21C152.92,297,150.6,295.36,148.62,295.17Z"/><path class="cls-1" d="M120.16,247.31c3.12-2,6.19-4.21,10.08-1.78-.3.63,2.66,1.83-.23,1.94C126.73,247.6,123.44,247.38,120.16,247.31Z"/><path class="cls-1" d="M149.58,316.33c0,2.09-.41,3.45-2.48,3.29-1.81-.15-1.89-1.51-1.91-2.88,0-1.65.41-3.06,2.33-3.12C149.76,313.54,149.44,315.36,149.58,316.33Z"/><path class="cls-1" d="M158,339.51c0-1,0-2,0-3,1.58-.69,3.23-2.29,4.81-.33a3,3,0,0,1,0,3.72C161.15,341.8,159.52,340.33,158,339.51Z"/><path class="cls-1" d="M160.18,279.47c0,1.83-1.17,2.08-2.62,2.09s-2.57-.63-2.4-2.31,1.12-2.75,2.92-2.57C159.7,276.84,160.17,278,160.18,279.47Z"/><path class="cls-1" d="M163.25,345.17c0,1.51-.52,2.62-2.27,2.46s-2-1.42-2-2.84.65-2.52,2.34-2.44C163.23,342.44,163.21,343.83,163.25,345.17Z"/><path class="cls-1" d="M173.22,342.39c1.82.07,2.08,1.29,2.06,2.75s-.63,2.58-2.37,2.45c-1.56-.11-1.76-1.26-1.77-2.5C171.14,343.67,171.35,342.39,173.22,342.39Z"/><path class="cls-1" d="M116.22,252.39a5.37,5.37,0,0,1,0-.8c5.38.51,10.92-1.3,16.18,1.07l0,0Z"/><path class="cls-1" d="M174.36,338.24c-.07,1.19-.14,2.49-1.82,2.25s-1.4-1.6-1.4-2.73.25-2.46,1.86-2.26S174.24,337.15,174.36,338.24Z"/><path class="cls-1" d="M196.22,305.54l2-1c.31,3.09-1.93,4.51-4,6l-.05-.05c0-1,0-2,.05-3l0,0a3.35,3.35,0,0,0,2-2Z"/><path class="cls-1" d="M175.24,251.54c-.27,2.12-1.57,2.3-3.19,1.6a1.11,1.11,0,0,1-.42-1.69c1.16-1.38,2.38.46,3.61.1Z"/><path class="cls-1" d="M148.28,251.1c-.22.31-.39.81-.73,1-.53.25-.94-.16-.86-.69a1.65,1.65,0,0,1,.68-1.1C148,249.93,148.09,250.55,148.28,251.1Z"/><path class="cls-1" d="M199.84,308.16l.15.38-.58.12c0-.14,0-.31.1-.41S199.73,308.18,199.84,308.16Z"/><path class="cls-1" d="M106.3,285.39c2.49.45,2,2.36,2,4-1.86.72-2.65,3.17-5,3.11-3.81-2.21-7.49-.46-11.22.25,3.4.86,6.72,2.54,10.23.74-.47,3.74-4.16,2.15-6.11,3.55,2.54,1.68,6.39-1.53,8.14,2.43l-.06.06c-1.07.05-2.26-.25-2.95,1l0,0a44.83,44.83,0,0,1-7-.09c-3.38-.55-5.11-2.77-5-6.29s1.85-5,5.39-4.72a57.88,57.88,0,0,0,7,0c1,0,2.14-.54,2.12-1.66,0-1.38-1.37-1.17-2.3-1.19-2.49-.06-5,0-7.48-.08-1.22,0-1.81-.72-1-2,3,.63,5.91-1.47,9,0,1.07.52,1.92-.91,2.44-2,.86.34,1,1.11,1.14,1.9,0,.44.06.89.09,1.33Z"/><path class="cls-1" d="M130.52,344.77c2.58-2,5.63-1.47,8.56-1.5,1.72,0,2.93.73,3.06,2.53a3.16,3.16,0,0,1-2.8,3.54,13.94,13.94,0,0,1-8.7-.89Z"/><path class="cls-1" d="M95.33,304.45l3.06,2.16c0,1.92,0,3.85,0,5.78-1.45,1.1-1.42,2.19,0,3.28-.13,1.64-.27,3.28-.41,4.92-1.54,3.89-.38,8-.76,11.92h0c-2.16-4.9-.54-10.08-1.08-15.1-.28-2.6.64-5.3-.62-7.82-.4-1-.8-2.09-1.21-3.13.77-.39.79-1.12.82-1.84Z"/><path class="cls-1" d="M104.36,282.59c-.52,1.06-1.37,2.49-2.44,2-3.1-1.48-6,.62-9,0l-.18-4c.5-.39,1-.77,1.52-1.15C97.37,281.22,101.6,279.59,104.36,282.59Z"/><path class="cls-1" d="M98,320.59c.14-1.64.28-3.28.41-4.92,1.83.19,4.09-.59,4.76,2.17a3.25,3.25,0,0,1-.92,3.58C100.65,322.73,99.25,321.94,98,320.59Z"/><path class="cls-1" d="M110.05,308.81c0,.23.07.47.1.71v12.37c-4.23-4.79-1.73-9.25-1.92-13.34l.06-.06Z"/><path class="cls-1" d="M98.43,312.39c0-1.93,0-3.86,0-5.78,2.14-.24,4.62-.83,4.81,2.42S100.85,312.43,98.43,312.39Z"/><path class="cls-1" d="M94.35,306.47c.41,1,.81,2.09,1.21,3.13-.67,1.87-1.64,3.43-4,2.49-1.64-.67-1.89-2.23-1.54-3.78C90.63,305.82,92.46,306,94.35,306.47Z"/><path class="cls-1" d="M99.32,348.56c-.13,2.3-2.31,3.54-2.92,5.61-.34,1.15-.11,3-2.11,2.66-2.2-.4-2-2.29-1.94-3.95,0-1.32.45-2.25,1.91-2.39l0,0c.2,1-.52,2.15.69,3.23a9,9,0,0,1,4.25-5.27Z"/><path class="cls-1" d="M87.27,309.4a2.62,2.62,0,0,1-2.87,2.65c-1.9-.1-2.18-1.69-2.16-3.27s.83-2.57,2.41-2.44A2.71,2.71,0,0,1,87.27,309.4Z"/><path class="cls-1" d="M95.38,318.68c-.2,1.65-.91,2.93-2.63,3.11s-2.71-1-2.8-2.7c-.11-1.88.67-3.42,2.68-3.46C94.42,315.59,94.79,317.35,95.38,318.68Z"/><path class="cls-1" d="M84.53,315.87c1.58.32,2.77,1.05,2.72,2.87a2.65,2.65,0,0,1-2.7,2.87c-1.63.07-2.24-1.12-2.31-2.57C82.15,317.4,82.7,316.16,84.53,315.87Z"/><path class="cls-1" d="M97.28,332.51c2.72,2.67,3.31,5.34,0,8l-.05-.05c-1-3-2,.42-3,0h0c-.81-3.34,3.43-4.79,3-8Z"/><path class="cls-1" d="M95.17,304.63c-3-.4-6.18.44-9-1.45,3.1,0,6.45-2.11,9.15,1.27Z"/><path class="cls-1" d="M104.28,342.52c-.62,2.87-1.76,5.29-5,6l-.09-.08c.63-2.87,2.92-4.35,5-6Z"/><path class="cls-1" d="M85.29,327.53a3,3,0,0,1-3-3A3,3,0,0,1,85.29,327.53Z"/><path class="cls-1" d="M78.14,321.4l1.22-1.9c2.08.09,1.88,1.64,1.92,3Z"/><path class="cls-1" d="M95.26,349.5c0-2.09,1.42-3.11,3-4l0,0c-.1,2-1.43,3.09-3,4Z"/><path class="cls-1" d="M117.23,340.54c-.76-.14-1.57-.22-1.49-1.3,0-.12.2-.32.31-.32,1.07,0,1.15.78,1.25,1.55Z"/><path class="cls-1" d="M117.3,340.47a1.89,1.89,0,0,1,2,2l0,0a1.89,1.89,0,0,1-2-2Z"/><path class="cls-1" d="M120.28,343.48a3.37,3.37,0,0,1,2,2l0,0a1.76,1.76,0,0,1-2-2Z"/><path class="cls-1" d="M104.23,304.56a2,2,0,0,1-1-2l.07-.06a2,2,0,0,1,1,2Z"/><path class="cls-1" d="M82.29,324.54a2,2,0,0,1-1-2A1.94,1.94,0,0,1,82.29,324.54Z"/><path class="cls-1" d="M86.28,329.53a2.08,2.08,0,0,1-1-2A2,2,0,0,1,86.28,329.53Z"/><path class="cls-1" d="M93.26,343.51c1.09.66,1.15,1.33,0,2l-.06-.06.05-2Z"/><path class="cls-1" d="M122.27,345.5a2,2,0,0,1,1,2l0,0a1.9,1.9,0,0,1-1-2Z"/><path class="cls-1" d="M89.28,332.53a2,2,0,0,1-1-2A2.2,2.2,0,0,1,89.28,332.53Z"/><path class="cls-1" d="M88.29,330.53a1.93,1.93,0,0,1-2-1A2,2,0,0,1,88.29,330.53Z"/><path class="cls-1" d="M97.29,340.54l-.47.44.42-.49Z"/><path class="cls-1" d="M103.22,302.56l-1-1,.06-.05,1,1Z"/><path class="cls-1" d="M102.23,301.55c-.32-.34-.65-.67-1-1l0,0,1,1Z"/><path class="cls-1" d="M105.26,305.54l-1-1,.08-.07,1,1Z"/><path class="cls-1" d="M99.22,344.47l1-1h0l-1,1Z"/><path class="cls-1" d="M106.23,306.56l-1-1,0,0,1,1Z"/><path class="cls-1" d="M98.26,345.49l1-1,.08.07-1,1Z"/><path class="cls-1" d="M107.25,307.55l-1-1,.06-.07,1,1Z"/><path class="cls-1" d="M93.3,345.54l-1,1,0,0c.32-.34.65-.67,1-1Z"/><path class="cls-1" d="M108.23,308.55l-1-1,0-.05,1,1Z"/><path class="cls-1" d="M94.26,350.49l1-1h0c-.32.34-.65.67-1,1Z"/><path class="cls-1" d="M120.23,343.54l-1-1,0,0,1,1Z"/><path class="cls-1" d="M205.25,341.55c.9,1.67,3.83.21,4.18,2.72a3.33,3.33,0,0,1-.36.39l-15.75-.06-.2-.21c.36-.93.72-1.87,1.07-2.8l3.06,0a3.42,3.42,0,0,0,4.95,0Z"/><path class="cls-1" d="M197.25,341.54l-3.06,0c-1.35-1.85-1.5-3.69.27-5.32a1.88,1.88,0,0,1,2.71.12C198.81,338,199.16,339.8,197.25,341.54Z"/><path class="cls-1" d="M205.25,341.55l-3.05,0c-1.49-1.77-1.57-3.56.12-5.2a1.88,1.88,0,0,1,2.68-.09C206.77,337.91,206.55,339.73,205.25,341.55Z"/><path class="cls-1" d="M193.24,345.65a14,14,0,0,1,2.89,0c1.75.35,2.28,1.7,2.12,3.32a2.46,2.46,0,0,1-2.52,2.48c-1.84,0-2.46-1.32-2.5-3,0-1,0-1.93,0-2.9Z"/><path class="cls-1" d="M206.22,348.31c-.05,1.69-.63,3.05-2.48,3.12a2.43,2.43,0,0,1-2.56-2.5c-.14-1.64.37-3.08,2.21-3.31S206,346.68,206.22,348.31Z"/><path class="cls-1" d="M175.6,323.38c3.72.87,4.75,3.27,6.71,4.33.84.45.68,1.42-.08,2.07a1.38,1.38,0,0,1-2.16-.15C178.79,328,177.61,326.21,175.6,323.38Z"/><path class="cls-1" d="M197.28,327.55c-1.65,3.14-5.1,1.41-7.45,2.73-.48.27-1.24-.27-1.34-1a1.33,1.33,0,0,1,1.34-1.65c2.45-.1,4.9-.09,7.35-.13Z"/><path class="cls-1" d="M184.22,322.53c2.77.14,5.34,1.49,8.85.8-4.33,3.35-7.65,2.79-8.82-.83Z"/><path class="cls-1" d="M193.27,345.58c-2,1.53-1.69,3.42-1.51,5.69a6.69,6.69,0,0,1-2.56,6.3,38.94,38.94,0,0,0,1.13-10.28,2.88,2.88,0,0,1,2.79-2.9l.2.21c0,.35,0,.69-.08,1Z"/><path class="cls-1" d="M192.7,319.17c-1.18,1.49-2.49,1.8-3.92.76a1,1,0,0,1,0-1.71C190.24,317.46,191.46,318.29,192.7,319.17Z"/><path class="cls-1" d="M195.22,317.53c.91.57,2.3-1.4,2.85.41a1.74,1.74,0,0,1-1.52,2.16c-1.79,0-1-1.65-1.3-2.6Z"/><path class="cls-1" d="M209.43,344.27c1.08.24,2.44.1,2.68,1.61.1.68-.31,1.39-1.09,1.28-1.36-.18-1.66-1.37-2-2.5A3.33,3.33,0,0,0,209.43,344.27Z"/><path class="cls-1" d="M182,349.22c-1.48.8-1.87,1.19-2.26,1.19-.75,0-1.23-.56-.89-1.29.14-.3.81-.47,1.24-.47A8.52,8.52,0,0,1,182,349.22Z"/><path class="cls-1" d="M181.07,345.78c-.61.29-1,.66-1.41.64-.76,0-1.18-.6-.79-1.31a1.39,1.39,0,0,1,1.23-.38C180.43,344.8,180.67,345.32,181.07,345.78Z"/><path class="cls-1" d="M174.2,320.57a1.94,1.94,0,0,1-2-2l.13-.13a1.93,1.93,0,0,1,2,2Z"/><path class="cls-1" d="M170.21,316.56l-.4-.52.48.44Z"/><path class="cls-1" d="M170.29,316.48l1,1-.1.11-1-1Z"/><path class="cls-1" d="M172.18,318.57l-1-1,.1-.11,1,1Z"/><path class="cls-1" d="M175.27,321.47l.41.54-.49-.45Z"/><path class="cls-1" d="M197.18,327.45l.49-.4-.39.5Z"/><path class="cls-1" d="M174.28,320.48l1,1-.08.09-1-1Z"/><path class="cls-1" d="M112.34,310.61c1.44-2.23,3.5-4.18,3.14-7.2,1.59,1.68,3.31,3.26,4.73,5.06,1.91,2.43,3.79,4.86-1.77,5.09-4.25.19-1,4.59-3.6,6.81-.6-2.35-1.13-4.3-.74-6.51C114.37,312.37,114.65,310.75,112.34,310.61Z"/><path class="cls-1" d="M127.3,320.53l-3,0a3,3,0,0,1-.16-4.63,2.72,2.72,0,0,1,3.63,0A3,3,0,0,1,127.3,320.53Z"/><path class="cls-1" d="M145.43,349.34c-1.9-.36-2.16-1.78-2.14-3.35s.4-2.69,2.2-2.59c2.14.13,2,1.79,2,3.27S147.28,349.35,145.43,349.34Z"/><path class="cls-1" d="M94.29,350.52c.33-.34.66-.67,1-1,1.58-.9,2.91-2,3-4l1-1,1-1,3.95-3.06.11.11-.06,1.94c-2.11,1.63-4.4,3.11-5,6A9,9,0,0,0,95,353.75C93.77,352.67,94.49,351.51,94.29,350.52Z"/><path class="cls-1" d="M122.32,317.8c0,1.9-.57,2.92-2.28,2.83s-2-1.43-1.94-2.83.55-2.6,2.29-2.51S122.22,316.83,122.32,317.8Z"/><path class="cls-1" d="M122.28,325c-.11,1.49-.72,2.63-2.4,2.56-1.94-.08-1.75-1.63-1.77-2.95s.51-2.21,2-2.21C121.92,322.35,122.41,323.38,122.28,325Z"/><path class="cls-1" d="M104.21,340.45c.11-1,.29-1.93,1.38-2.32.08,0,.35.18.35.29.09,1.17-.74,1.68-1.62,2.13Z"/><path class="cls-1" d="M34.28,320.53c-2.39-1.77-4.5-2.62-1.51-6.66,1.5-2,2.69-6.62,2.53-10.34,1.64.14,3.49,1.08,2.44,2.58-1.32,1.89,1.7,5.2-2.28,5.94-1.25.24-1.18.6.86,5.44l0,0-2,0a1.41,1.41,0,0,0-.18-.37c0-.06-.19,0-.28-.06l.44.45c0,1,0,2,0,3Z"/><path class="cls-1" d="M38.3,332.52c-2.14.33-4.6,1.29-3.34-2.78.94-3.06.25-6.19-.67-9.21v0l2,0v7.87c.61-2.67,2-5.42.08-7.93,0-1,0-2,0-3l0,0c2.88,1.56,1.83,4.3,1.94,6.64C38.4,326.92,38.3,329.72,38.3,332.52Z"/><path class="cls-1" d="M38,315.13c2.61.91,5.33.08,7.74,1.36C42.9,317.47,40.09,318.36,38,315.13Z"/><path class="cls-1" d="M42.29,293.52a10,10,0,0,1,2.2.91c.9.64,1.92,1.38,1.64,2.73-.07.36-.58.88-.89.89-1.45,0-1.74-1.24-2.2-2.23a19.2,19.2,0,0,1-.76-2.29Z"/><path class="cls-1" d="M43.32,304.49c1.59.21,3,.68,2.81,2.68,0,.33-.67.91-.94.86-2-.35-1.79-2-1.93-3.48Z"/><path class="cls-1" d="M40.27,300.55c-.78-.09-1.57-.19-1.55-1.26A.49.49,0,0,1,39,299c1.07,0,1.15.78,1.28,1.54Z"/><path class="cls-1" d="M51.29,327.51l-1,1Z"/><path class="cls-1" d="M41.32,301.48l.4.52-.48-.43Z"/><path class="cls-1" d="M40.31,300.51l1,1-.08.09-1-1Z"/><path class="cls-1" d="M41.31,292.51l1,1h0l-1-1Z"/><path class="cls-1" d="M43.26,304.55l-.4-.49.45.43Z"/><path class="cls-1" d="M41.27,292.54l-.4-.48.44.45Z"/><path class="cls-1" d="M54.26,291.55l-1-1,0,0,1,1Z"/><path class="cls-1" d="M53.26,290.55l-1-1h0l1,1Z"/><path class="cls-1" d="M40.36,344.44c2,.42,2.13,1.77,1.47,3.33a1.06,1.06,0,0,1-1.66.42c-1.35-1.16.4-2.4.06-3.63Z"/><path class="cls-1" d="M48,337.82c-2.36-1.08-1.64-2.74-1-4.41C47.33,334.88,47.67,336.35,48,337.82Z"/><path class="cls-1" d="M187.17,290.27H172.48v-.39h14.7Z"/><ellipse class="cls-1" cx="178.73" cy="295.12" rx="8.96" ry="0.36"/><path class="cls-1" d="M188.21,300.49l.45-.41-.4.47Z"/><path class="cls-1" d="M79.29,332.53c.09-1.34.58-2.32,2.11-1.68a1.77,1.77,0,0,1,.64,1.62c-.82,1.76-1.84.24-2.78,0Z"/><path class="cls-1" d="M76.23,330.47c.09-.64.13-1.35,1-1.46.17,0,.57.38.56.55-.08.83-.8.88-1.43,1Z"/><path class="cls-1" d="M23.29,321c3.12,3.39,1.61,7.48,1.73,11.32,0,.21-.75.67-1.08.62a1.36,1.36,0,0,1-1.2-1.79C23.9,327.8,23.25,324.45,23.29,321Z"/><path class="cls-1" d="M28.31,312.51l.77,1.11-.4.27c-.13-.45-.27-.9-.4-1.36Z"/><path class="cls-1" d="M53.3,290.51l-1-1c0-5.8.14-11.62,0-17.42-.09-2.56.68-3.3,3-2.56,3.22,2.21,2.58,5,2.24,8.48-.43,4.21-.81,8.86,2.25,12.71.84,1,.7,2.52.22,4.09-2.41-.25-3.18-3.4-5.69-3.32Z"/><path class="cls-1" d="M182.19,280.5a2.41,2.41,0,0,1,.08-.48c.72-1.56.79-3.61,2.95-4.07.23-.05.89.59.87.88-.18,2.32-1.75,3.3-3.81,3.75Z"/><path class="cls-1" d="M182.28,280.58l-1,1-.09-.09,1-1Z"/><path class="cls-1" d="M145.23,336.53a1.88,1.88,0,0,1,2-2A1.87,1.87,0,0,1,145.23,336.53Z"/><path class="cls-1" d="M148.23,332.53a2.09,2.09,0,0,1,2-1A2.11,2.11,0,0,1,148.23,332.53Z"/><path class="cls-1" d="M147.24,334.53a2.1,2.1,0,0,1,1-2A1.93,1.93,0,0,1,147.24,334.53Z"/><path class="cls-1" d="M156.28,261.57c-.1,2-.24,4-2.46,4.82-.27.1-1.12-.41-1.11-.61.08-2.28,2.06-3.06,3.51-4.26Z"/><path class="cls-1" d="M93.24,345.48c-.33.34-.66.67-1,1-.43-.14-1.22-.27-1.23-.42,0-1.51,1.22-2,2.26-2.59C93.27,344.15,93.25,344.82,93.24,345.48Z"/><path class="cls-1" d="M90.34,342.57a2,2,0,0,1-1.07,1.93h0a1.91,1.91,0,0,1,.93-2.07Z"/><path class="cls-1" d="M90.21,342.44c.33-.33.65-.67,1-1l.15.16-1,1Z"/><path class="cls-1" d="M89.27,344.5a1.53,1.53,0,0,1-.16.34c0,.05-.17,0-.26.06l.43-.39Z"/><path class="cls-1" d="M51.32,339.48c.26.37.51.73.75,1.11,0,0-.24.17-.37.26l-.46-1.29Z"/><path class="cls-1" d="M35.3,346.52l.21-.43c-.08.13-.16.27-.23.41Z"/><path class="cls-1" d="M58.28,262.54a5.27,5.27,0,0,1-4.53-3.93c0-.2.7-.92.91-.86,2.29.75,3.06,2.7,3.62,4.79Z"/><path class="cls-1" d="M132.43,253.43a6,6,0,0,1,0,4.2c-1-.17-2-.27-2.92-.51-1.44-.37-3.81-.88-2.8,1.33,1.16,2.54,3.74-.62,5.73-.05h0c.28,3.16-1.07,4.35-4.3,4.16-4.26-.24-8.55,0-12.82,0,0-3,.09-6,.13-9Z"/><path class="cls-1" d="M108.29,308.49l-1-1-1-1-1-1-1-1a2,2,0,0,0-1-2l-1-1-1-1c.69-1.21,1.88-.91,2.95-1l.48.41-.42-.47c-1.75-4-5.6-.75-8.14-2.43,2-1.4,5.64.19,6.11-3.55v0l1-1,0,0c2.35.06,3.14-2.39,5-3.11,2.35.45,2,2.32,2,3.93,0,5.15-.12,10.3-.19,15.46Z"/><path class="cls-1" d="M115.27,262.54c4.27,0,8.56-.21,12.82,0,3.23.19,4.58-1,4.3-4.16,2.13.9,4.23,2,6.61.83.09,1.44.18,2.87.26,4.31-1.61-.13-3.34-1.56-4.67.82-.82,1.47-2.54,1.21-4,1.2l-15.2-.08C115.33,264.51,115.3,263.52,115.27,262.54Z"/><path class="cls-1" d="M132.43,253.43l-17,.08c.27-.37.55-.74.82-1.12l16.18.29A1.28,1.28,0,0,1,132.43,253.43Z"/><path class="cls-1" d="M115.43,293.83c1,.82,1,1.63,0,2.43Z"/><path class="cls-1" d="M106.3,285.39l-.71.43c0-.44-.07-.89-.09-1.33Z"/><path class="cls-1" d="M137.25,271.53a2.52,2.52,0,0,1,.06-.48c.41-1.18.42-2.66,2-3,.21,0,.82.6.82.92,0,1.9-1.23,2.47-2.86,2.58Z"/><path class="cls-1" d="M137.26,271.54l-.42.45c0-.09,0-.22.06-.28a1.28,1.28,0,0,1,.35-.18Z"/><path class="cls-1" d="M145.27,329.53c-.12.74-.16,1.56-1.22,1.54a.45.45,0,0,1-.31-.32c-.05-1.05.73-1.15,1.5-1.25Z"/><path class="cls-1" d="M147.27,326.53a1.94,1.94,0,0,1-1,2l-.07-.07a2,2,0,0,1,1-2Z"/><path class="cls-1" d="M146.28,328.55l-1,1,0,0,1-1Z"/><path class="cls-1" d="M194.25,307.51c0,1,0,2-.05,3-1.79-.32-3.8.66-6.27-1.16Z"/><path class="cls-1" d="M186,309.89a4.15,4.15,0,0,1-1.15.24c-.11,0-.34-.7-.28-.74a5.36,5.36,0,0,1,1.06-.48Z"/><path class="cls-1" d="M196.25,305.51a3.35,3.35,0,0,1-2,2A1.82,1.82,0,0,1,196.25,305.51Z"/><path class="cls-1" d="M132.4,258.4c-2-.57-4.57,2.59-5.73.05-1-2.21,1.36-1.7,2.8-1.33.95.24,1.94.34,2.92.51A1.19,1.19,0,0,1,132.4,258.4Z"/><path class="cls-1" d="M102.27,293.52c-3.51,1.8-6.83.12-10.23-.74,3.73-.71,7.41-2.46,11.22-.25l0,0-1,1Z"/><path class="cls-1" d="M36.25,320.56l-2-.05c0-1,0-2,0-3l0,0,2,0c0,1,0,2,0,3Z"/><path class="cls-1" d="M34.28,317.53l-.44-.45c.09,0,.23,0,.28.06a1.41,1.41,0,0,1,.18.37Z"/><path class="cls-1" d="M36.33,320.49c1.91,2.51.53,5.26-.08,7.93v-7.87Z"/><path class="cls-1" d="M104.3,299.5l.42.47-.48-.41Z"/><path class="cls-1" d="M102.26,293.54l1-1Z"/></g></g></svg>